# xmcd
#
# Track frame offsets:
#	150
#	11058
#	22693
#	37814
#	53478
#	69604
#	87303
#	101413
#	119720
#	133080
#	144154
#	154017
#
# Disc length: 2250 seconds
# Revision: 1
# Processed by: cddbd v1.5.2PL0 Copyright (c) Steve Scherf et al.
# Submitted via: dBpowerAMP V12.0
#
DISCID=9108c80c
DTITLE=Bob Corbet - Every Day is a Festival
DYEAR=2012
DGENRE=Country
TTITLE0=Blown Away
TTITLE1=Can't Always Get What You Want
TTITLE2=No Regrets
TTITLE3=Main Man
TTITLE4=Cracker Night
TTITLE5=New Orleans
TTITLE6=Holy Rose
TTITLE7=Western Star
TTITLE8=Sydney From a 747
TTITLE9=My Matilda
TTITLE10=Every Day is a Festival
TTITLE11=Lucky Country
EXTD=
EXTT0=
EXTT1=
EXTT2=
EXTT3=
EXTT4=
EXTT5=
EXTT6=
EXTT7=
EXTT8=
EXTT9=
EXTT10=
EXTT11=
PLAYORDER=
